<?xml version="1.0" encoding="utf-8"?>
<!-- Generator: Adobe Illustrator 16.0.0, SVG Export Plug-In . SVG Version: 6.00 Build 0)  -->
<!DOCTYPE svg PUBLIC "-//W3C//DTD SVG 1.1//EN" "http://www.w3.org/Graphics/SVG/1.1/DTD/svg11.dtd">
<svg version="1.1" id="Layer_1" xmlns="http://www.w3.org/2000/svg" xmlns:xlink="http://www.w3.org/1999/xlink" x="0px" y="0px"
	 width="211.655px" height="41px" viewBox="0 0 211.655 41" enable-background="new 0 0 211.655 41" xml:space="preserve">
<g>
	<g>
		<g>
			<path fill="none" d="M8.796,28.027c0,0,0.104,12.484,13.654,12.853c0,0,12.359,0.042,13.247-13.075"/>
			
				<text transform="matrix(0.9344 0.3622 -0.3564 0.932 16.4443 39.646)" fill="#FFFFFF" font-family="'OstrichSans-Black'" font-size="2.3309">-</text>
			
				<text transform="matrix(0.9567 0.2975 -0.2915 0.9546 17.4023 40.0088)" fill="#FFFFFF" font-family="'OstrichSans-Black'" font-size="2.3309"> </text>
			
				<text transform="matrix(0.9725 0.2395 -0.2334 0.9708 18.1885 40.2529)" fill="#FFFFFF" font-family="'OstrichSans-Black'" font-size="2.3309">E</text>
			
				<text transform="matrix(0.9855 0.1763 -0.1701 0.9843 19.1719 40.4902)" fill="#FFFFFF" font-family="'OstrichSans-Black'" font-size="2.3309">S</text>
			
				<text transform="matrix(0.9944 0.1131 -0.1069 0.9935 20.2148 40.6743)" fill="#FFFFFF" font-family="'OstrichSans-Black'" font-size="2.3309">T</text>
			
				<text transform="matrix(0.9981 0.0693 -0.063 0.9975 21.3857 40.7974)" fill="#FFFFFF" font-family="'OstrichSans-Black'" font-size="2.3309">.</text>
			
				<text transform="matrix(0.9993 0.0457 -0.0394 0.9989 21.9199 40.832)" fill="#FFFFFF" font-family="'OstrichSans-Black'" font-size="2.3309"> </text>
			
				<text transform="matrix(0.9956 -0.0882 0.0945 0.996 22.8164 40.8525)" fill="#FFFFFF" font-family="'OstrichSans-Black'" font-size="2.3309">2</text>
			
				<text transform="matrix(0.987 -0.1551 0.1613 0.9878 23.793 40.7607)" fill="#FFFFFF" font-family="'OstrichSans-Black'" font-size="2.3309">0</text>
			
				<text transform="matrix(0.9768 -0.2083 0.2145 0.978 24.7666 40.6016)" fill="#FFFFFF" font-family="'OstrichSans-Black'" font-size="2.3309">1</text>
			
				<text transform="matrix(0.9641 -0.2597 0.2659 0.9656 25.4922 40.4473)" fill="#FFFFFF" font-family="'OstrichSans-Black'" font-size="2.3309">5</text>
			
				<text transform="matrix(0.9466 -0.3166 0.3226 0.9485 26.4639 40.1787)" fill="#FFFFFF" font-family="'OstrichSans-Black'" font-size="2.3309"> </text>
			
				<text transform="matrix(0.9251 -0.3741 0.38 0.9273 27.2646 39.9092)" fill="#FFFFFF" font-family="'OstrichSans-Black'" font-size="2.3309">-</text>
		</g>
		<g>
			<g>
				<path fill="#FFFFFF" d="M18.744,11.208c0.097,0.511,0.194,1.022,0.291,1.533c0.1,0.55-0.063,1.065-0.613,1.198
					c-0.388,0.095-0.773,0.204-1.155,0.328c-0.375-1.155-0.751-2.309-1.126-3.464c0.469-0.152,0.941-0.287,1.418-0.403
					c0.45-0.11,0.879,0.066,1.042,0.39C18.664,10.92,18.718,11.059,18.744,11.208z M18.16,13.467
					c0.267-0.066,0.284-0.303,0.219-0.588c-0.117-0.507-0.234-1.014-0.352-1.521c-0.063-0.284-0.197-0.491-0.506-0.413
					c-0.153,0.039-0.306,0.08-0.459,0.122c0.234,0.835,0.467,1.67,0.701,2.505C17.896,13.536,18.027,13.5,18.16,13.467z"/>
				<path fill="#FFFFFF" d="M20.895,12.685c-0.223,0.018-0.446,0.04-0.669,0.066c-0.011,0.286-0.019,0.572-0.025,0.857
					c-0.206,0.026-0.411,0.057-0.616,0.091c0.05-1.239,0.157-2.482,0.322-3.724c0.269-0.032,0.536-0.058,0.805-0.079
					c0.403,1.187,0.75,2.385,1.04,3.591c-0.22,0.006-0.438,0.018-0.658,0.033C21.029,13.242,20.964,12.963,20.895,12.685z
					 M20.738,12.17c-0.109-0.427-0.225-0.854-0.345-1.28c-0.007,0.001-0.013,0.001-0.019,0.002
					c-0.036,0.441-0.067,0.882-0.092,1.323C20.436,12.199,20.586,12.184,20.738,12.17z"/>
				<path fill="#FFFFFF" d="M22.794,13.49c-0.22-0.008-0.438-0.011-0.658-0.009c-0.008-1.214-0.015-2.428-0.022-3.642
					c0.27-0.002,0.539,0.002,0.808,0.011C22.879,11.063,22.836,12.276,22.794,13.49z"/>
				<path fill="#FFFFFF" d="M24.898,13.175c-0.028,0.171-0.056,0.342-0.084,0.514c-0.503-0.082-1.008-0.14-1.515-0.173
					c0.08-1.212,0.161-2.423,0.241-3.634c0.27,0.018,0.538,0.041,0.806,0.07c-0.111,1.035-0.223,2.069-0.335,3.104
					C24.309,13.087,24.604,13.127,24.898,13.175z"/>
				<path fill="#FFFFFF" d="M26.455,14.044c-0.206-0.056-0.415-0.108-0.623-0.156c0.105-0.46,0.211-0.919,0.316-1.379
					c-0.107-0.786-0.25-1.574-0.43-2.36c0.26,0.046,0.519,0.098,0.776,0.156c0.054,0.612,0.09,1.223,0.11,1.833
					c0.004,0.001,0.008,0.002,0.012,0.003c0.299-0.529,0.611-1.053,0.938-1.57c0.259,0.072,0.515,0.15,0.771,0.233
					c-0.533,0.608-1.033,1.234-1.499,1.876C26.703,13.134,26.579,13.589,26.455,14.044z"/>
			</g>
		</g>
	</g>
	<g>
		<path fill="none" d="M24.81,24.396c0-0.758-0.386-1.354-1.198-1.354h-1.414v4.736h0.84v-1.907c0.033,0,0.154,0,0.271,0
			l0.804,1.907h0.881L24.1,25.755C24.506,25.552,24.81,25.099,24.81,24.396z M23.308,25.152h-0.271v-1.434h0.547
			c0.332,0,0.421,0.297,0.421,0.677C24.005,25.085,23.855,25.152,23.308,25.152z"/>
		<path fill="none" d="M21.271,24.396c0-0.758-0.387-1.354-1.199-1.354h-1.414v4.736h0.84v-1.907c0.033,0,0.155,0,0.271,0
			l0.805,1.907h0.879l-0.893-2.023C20.965,25.552,21.271,25.099,21.271,24.396z M19.769,25.152h-0.271v-1.434h0.547
			c0.332,0,0.42,0.297,0.42,0.677C20.465,25.085,20.316,25.152,19.769,25.152z"/>
		<polygon fill="none" points="13.623,26.554 13.602,26.554 13.055,23.042 12.229,23.042 11.676,26.554 11.654,26.554 
			11.105,23.042 10.274,23.042 11.233,27.778 12.061,27.778 12.622,24.984 13.185,27.778 14.009,27.778 14.963,23.042 
			14.178,23.042 		"/>
		<rect x="25.737" y="23.042" fill="none" width="0.845" height="4.736"/>
		<path fill="none" d="M16.006,23.042l-0.975,4.736h0.8l0.161-1.103h0.819l0.169,1.103h0.845l-0.974-4.736H16.006z M16.134,25.992
			l0.265-1.699h0.02l0.258,1.699H16.134z"/>
		<path fill="none" d="M33.593,24.396c0-0.758-0.385-1.354-1.196-1.354h-1.415v4.736h0.84v-1.907c0.033,0,0.154,0,0.271,0
			l0.805,1.907h0.88l-0.892-2.023C33.289,25.552,33.593,25.099,33.593,24.396z M32.092,25.152h-0.271v-1.434h0.547
			c0.333,0,0.421,0.297,0.421,0.677C32.789,25.085,32.64,25.152,32.092,25.152z"/>
		<path fill="none" d="M28.803,22.981c-0.935,0-1.265,0.569-1.265,1.055v2.734c0,0.487,0.33,1.069,1.265,1.069
			c0.846,0,1.225-0.582,1.225-1.069v-2.734C30.027,23.55,29.648,22.981,28.803,22.981z M29.182,26.756
			c0,0.142-0.135,0.407-0.379,0.407c-0.297,0-0.419-0.25-0.419-0.407V24.03c0-0.128,0.122-0.385,0.419-0.385
			c0.244,0,0.379,0.257,0.379,0.399V26.756z"/>
		<path fill="#FFFFFF" d="M40.709,21.831H26.95c3.765-4.262,7.137-8.89,10.248-13.59c0.179-0.27,0.357-0.541,0.53-0.801
			c1.035-1.367,1.456-3.46,1.948-5.073C40.13,0.889,40.3,0.009,40.3,0c-0.092,0.474-1.214,1.342-1.513,1.672
			c-1.464,1.627-2.764,3.26-4.086,4.967c-0.705,1.062-1.439,2.236-2.295,3.419c-2.988,4.136-6.209,8.098-9.73,11.773h-1.005
			c-3.431-3.607-6.814-7.729-9.733-11.773c-0.856-1.188-1.588-2.357-2.295-3.419c-1.327-1.701-2.622-3.34-4.092-4.967
			C5.258,1.342,4.136,0.474,4.044,0c0,0.009,0.17,0.889,0.624,2.367C5.16,3.98,5.581,6.073,6.614,7.44
			c0.174,0.261,0.348,0.531,0.532,0.801c3.108,4.705,6.484,9.332,10.253,13.59H3.687l1.756,3.552l-1.756,3.565h11.267
			c-0.483,0.389-0.97,0.772-1.464,1.146c-0.159,0.122-0.329,0.227-0.488,0.35c-0.528-0.372-1.068-0.676-1.574-0.875
			c-0.44-0.175-0.841-0.286-1.138-0.345c-0.295-0.062-0.486-0.071-0.486-0.071s0.01,0.193,0.071,0.487
			c0.059,0.299,0.171,0.697,0.339,1.135c0.15,0.378,0.362,0.778,0.609,1.174c0.027,0.053,0.072,0.101,0.107,0.149
			c0.303,0.474,0.659,0.943,1.081,1.363c0.271,0.271,0.569,0.517,0.874,0.748c0.213,0.165,0.435,0.301,0.656,0.441
			c0.387,0.246,0.772,0.463,1.146,0.608c0.444,0.171,0.84,0.282,1.14,0.339c0.296,0.057,0.489,0.066,0.489,0.066
			s-0.012-0.193-0.073-0.486c-0.059-0.296-0.17-0.697-0.34-1.135c-0.172-0.454-0.434-0.933-0.748-1.407
			c1.617-1.151,3.169-2.388,4.663-3.688h4.707c1.493,1.3,3.045,2.536,4.659,3.683c-0.313,0.479-0.57,0.958-0.748,1.412
			c-0.168,0.438-0.276,0.835-0.339,1.135c-0.059,0.293-0.067,0.486-0.067,0.486s0.192-0.01,0.488-0.071
			c0.3-0.059,0.694-0.17,1.135-0.338c0.372-0.146,0.764-0.363,1.149-0.604c0.223-0.14,0.44-0.281,0.656-0.441
			c0.304-0.231,0.6-0.477,0.875-0.753c0.421-0.42,0.778-0.884,1.082-1.358c0.034-0.052,0.073-0.101,0.106-0.154
			c0.247-0.391,0.459-0.791,0.604-1.169c0.176-0.438,0.287-0.841,0.345-1.135c0.062-0.294,0.071-0.487,0.071-0.487
			s-0.193,0.009-0.488,0.071c-0.299,0.059-0.694,0.169-1.135,0.34c-0.507,0.198-1.049,0.5-1.574,0.879
			c-0.166-0.123-0.334-0.228-0.494-0.354c-0.492-0.375-0.979-0.756-1.46-1.143h11.319l-1.757-3.565L40.709,21.831z M14.009,27.778
			h-0.824l-0.563-2.794l-0.562,2.794h-0.827l-0.959-4.736h0.831l0.549,3.512h0.021l0.553-3.512h0.826l0.547,3.512h0.021l0.555-3.512
			h0.785L14.009,27.778z M16.98,27.778l-0.169-1.103h-0.819l-0.161,1.103h-0.8l0.975-4.736h0.846l0.974,4.736H16.98z M20.573,27.778
			l-0.805-1.907c-0.115,0-0.237,0-0.271,0v1.907h-0.84v-4.736h1.414c0.813,0,1.199,0.595,1.199,1.354
			c0,0.704-0.307,1.157-0.712,1.36l0.893,2.023H20.573z M24.111,27.778l-0.804-1.907c-0.116,0-0.237,0-0.271,0v1.907h-0.84v-4.736
			h1.414c0.813,0,1.198,0.595,1.198,1.354c0,0.704-0.304,1.157-0.71,1.36l0.893,2.023H24.111z M26.582,27.778h-0.845v-4.736h0.845
			V27.778z M30.027,26.771c0,0.487-0.379,1.069-1.225,1.069c-0.935,0-1.265-0.582-1.265-1.069v-2.734
			c0-0.486,0.33-1.055,1.265-1.055c0.846,0,1.225,0.569,1.225,1.055V26.771z M32.896,27.778l-0.805-1.907c-0.116,0-0.237,0-0.271,0
			v1.907h-0.84v-4.736h1.415c0.812,0,1.196,0.595,1.196,1.354c0,0.704-0.304,1.157-0.708,1.36l0.892,2.023H32.896z"/>
		<path fill="#FFFFFF" d="M39.465,37.008c-2.112-1.473-3.122-2.245-5.059-3.833c-0.319,0.468-0.687,0.927-1.121,1.333
			c-0.29,0.265-0.599,0.5-0.921,0.719c-0.225,0.154-0.456,0.278-0.692,0.41c2.131,1.796,3.251,2.666,5.594,4.329
			c0.87,0.579,2.098,0.372,2.7-0.455C40.57,38.686,40.324,37.569,39.465,37.008z"/>
		<path fill="#FFFFFF" d="M11.059,34.508c-0.435-0.407-0.807-0.866-1.121-1.333c-1.937,1.594-2.95,2.361-5.063,3.833
			c-0.533,0.35-0.831,0.917-0.831,1.496v0.002c0,0.347,0.108,0.697,0.335,1.006c0.364,0.512,0.975,0.782,1.593,0.782
			c0.382,0,0.769-0.104,1.106-0.327c2.337-1.664,3.458-2.533,5.588-4.329c-0.23-0.126-0.462-0.256-0.69-0.41
			C11.657,35.009,11.344,34.773,11.059,34.508z"/>
		<g>
			<path fill="#FFFFFF" d="M23.584,23.719h-0.547v1.434h0.271c0.548,0,0.697-0.067,0.697-0.757
				C24.005,24.016,23.916,23.719,23.584,23.719z"/>
		</g>
		<g>
			<polygon fill="#FFFFFF" points="16.398,24.293 16.134,25.992 16.676,25.992 16.418,24.293 			"/>
		</g>
		<g>
			<path fill="#FFFFFF" d="M20.045,23.719h-0.547v1.434h0.271c0.548,0,0.696-0.067,0.696-0.757
				C20.465,24.016,20.377,23.719,20.045,23.719z"/>
		</g>
		<g>
			<path fill="#FFFFFF" d="M28.803,23.645c-0.297,0-0.419,0.257-0.419,0.385v2.727c0,0.156,0.122,0.407,0.419,0.407
				c0.244,0,0.379-0.265,0.379-0.407v-2.713C29.182,23.901,29.047,23.645,28.803,23.645z"/>
		</g>
		<g>
			<path fill="#FFFFFF" d="M32.368,23.719h-0.547v1.434h0.271c0.548,0,0.697-0.067,0.697-0.757
				C32.789,24.016,32.701,23.719,32.368,23.719z"/>
		</g>
	</g>
</g>
<g>
	<path fill="#FFFFFF" d="M65.772,17.525v7.869c0,2.807-1.26,5.246-4.093,5.246h-5.928V12.279h5.928c1.862,0,3.41,1.285,3.83,3.042
		C65.667,16.03,65.772,16.764,65.772,17.525z M60.998,28.017c1.312,0,1.652-1.154,1.652-2.623v-7.869
		c0-1.469-0.341-2.623-1.652-2.623h-1.967v13.115H60.998z"/>
	<path fill="#FFFFFF" d="M75.111,26.364h-3.173l-0.63,4.275h-3.096l3.777-18.361h3.279l3.776,18.361h-3.278L75.111,26.364z
		 M74.587,23.715l-0.996-6.583h-0.079l-1.022,6.583H74.587z"/>
	<path fill="#FFFFFF" d="M85.554,30.64h-3.279V12.279h3.279V30.64z"/>
	<path fill="#FFFFFF" d="M96.966,28.017v2.623h-7.581V12.279h3.279v15.738H96.966z"/>
	<path fill="#FFFFFF" d="M104.626,30.64h-3.174v-7.135l-3.83-11.226h3.2l2.229,8.866h0.053l2.125-8.866h3.226l-3.829,11.226V30.64z"
		/>
	<path fill="#FFFFFF" d="M135.423,12.279l-3.698,18.361h-3.2l-2.177-10.833L124.17,30.64h-3.199l-3.726-18.361h3.227l2.125,13.613
		h0.078l2.151-13.613h3.2l2.124,13.613h0.079l2.15-13.613H135.423z"/>
	<path fill="#FFFFFF" d="M142.586,26.364h-3.174l-0.63,4.275h-3.096l3.777-18.361h3.279l3.776,18.361h-3.278L142.586,26.364z
		 M142.061,23.715l-0.996-6.583h-0.079l-1.022,6.583H142.061z"/>
	<path fill="#FFFFFF" d="M157.171,30.64l-3.121-7.397c-0.445,0-0.918,0-1.049,0v7.397h-3.253V12.279h5.482
		c3.147,0,4.643,2.308,4.643,5.246c0,2.728-1.181,4.485-2.754,5.272l3.462,7.843H157.171z M153.001,20.462h1.049
		c2.125,0,2.702-0.262,2.702-2.938c0-1.469-0.341-2.623-1.627-2.623h-2.124V20.462z"/>
	<path fill="#FFFFFF" d="M170.892,30.64l-3.121-7.397c-0.445,0-0.918,0-1.049,0v7.397h-3.253V12.279h5.482
		c3.147,0,4.643,2.308,4.643,5.246c0,2.728-1.181,4.485-2.754,5.272l3.462,7.843H170.892z M166.722,20.462h1.049
		c2.125,0,2.702-0.262,2.702-2.938c0-1.469-0.341-2.623-1.627-2.623h-2.124V20.462z"/>
	<path fill="#FFFFFF" d="M180.468,30.64h-3.279V12.279h3.279V30.64z"/>
	<path fill="#FFFFFF" d="M193.819,16.135v10.597c0,1.889-1.469,4.144-4.747,4.144c-3.62,0-4.905-2.255-4.905-4.144V16.135
		c0-1.889,1.285-4.092,4.905-4.092C192.351,12.042,193.819,14.246,193.819,16.135z M190.541,16.161c0-0.551-0.524-1.547-1.469-1.547
		c-1.154,0-1.627,0.997-1.627,1.495v10.57c0,0.604,0.473,1.574,1.627,1.574c0.944,0,1.469-1.023,1.469-1.574V16.161z"/>
	<path fill="#FFFFFF" d="M204.942,30.64l-3.121-7.397c-0.445,0-0.918,0-1.049,0v7.397h-3.253V12.279h5.482
		c3.147,0,4.643,2.308,4.643,5.246c0,2.728-1.181,4.485-2.754,5.272l3.462,7.843H204.942z M200.772,20.462h1.049
		c2.125,0,2.702-0.262,2.702-2.938c0-1.469-0.341-2.623-1.627-2.623h-2.124V20.462z"/>
</g>
</svg>
