<?xml version="1.0" encoding="utf-8"?>
<!-- Generator: Adobe Illustrator 16.0.0, SVG Export Plug-In . SVG Version: 6.00 Build 0)  -->
<!DOCTYPE svg PUBLIC "-//W3C//DTD SVG 1.1//EN" "http://www.w3.org/Graphics/SVG/1.1/DTD/svg11.dtd">
<svg version="1.1" id="Layer_1" xmlns="http://www.w3.org/2000/svg" xmlns:xlink="http://www.w3.org/1999/xlink" x="0px" y="0px"
	 width="189.268px" height="209.333px" viewBox="0 0 189.268 209.333" enable-background="new 0 0 189.268 209.333"
	 xml:space="preserve">
<g>
	<g>
		<path fill="#FFFFFF" d="M187.635,111.658h-69.123c18.913-21.411,35.854-44.663,51.483-68.276c0.897-1.357,1.796-2.715,2.669-4.025
			c5.194-6.865,7.306-17.381,9.781-25.488c2.281-7.426,3.131-11.844,3.131-11.891c-0.461,2.377-6.092,6.746-7.596,8.4
			c-7.354,8.176-13.883,16.381-20.533,24.951c-3.543,5.338-7.232,11.232-11.528,17.178c-15.013,20.781-31.191,40.684-48.882,59.151
			h-5.041C74.749,93.536,57.751,72.826,43.087,52.507c-4.296-5.971-7.985-11.84-11.528-17.178
			c-6.674-8.543-13.179-16.775-20.557-24.951c-1.48-1.654-7.111-6.023-7.572-8.4c0,0.047,0.85,4.465,3.131,11.891
			c2.476,8.107,4.587,18.623,9.781,25.488c0.873,1.311,1.747,2.668,2.67,4.025c15.62,23.635,32.579,46.881,51.519,68.276H1.633
			l8.828,17.844l-8.828,17.914H58.24c-2.427,1.952-4.877,3.878-7.363,5.763c-0.801,0.607-1.65,1.141-2.451,1.754
			c-2.645-1.869-5.363-3.398-7.912-4.393c-2.208-0.881-4.223-1.438-5.703-1.729c-1.48-0.316-2.451-0.359-2.451-0.359
			s0.049,0.971,0.364,2.445c0.291,1.506,0.85,3.502,1.698,5.703c0.753,1.9,1.82,3.908,3.059,5.898
			c0.146,0.268,0.364,0.51,0.534,0.752c1.528,2.379,3.325,4.732,5.437,6.844c1.359,1.365,2.863,2.598,4.393,3.762
			c1.068,0.826,2.185,1.512,3.301,2.209c1.941,1.238,3.883,2.33,5.752,3.059c2.232,0.855,4.223,1.414,5.729,1.705
			c1.48,0.285,2.451,0.334,2.451,0.334s-0.049-0.971-0.365-2.445c-0.291-1.486-0.849-3.502-1.698-5.703
			c-0.874-2.281-2.185-4.686-3.762-7.068c8.124-5.786,15.913-11.996,23.425-18.53h23.641c7.509,6.532,15.305,12.737,23.414,18.505
			c-1.577,2.408-2.863,4.813-3.762,7.094c-0.85,2.201-1.383,4.197-1.699,5.703c-0.291,1.475-0.34,2.445-0.34,2.445
			s0.972-0.049,2.452-0.359c1.505-0.291,3.495-0.855,5.703-1.703c1.869-0.729,3.835-1.82,5.776-3.035
			c1.117-0.697,2.209-1.406,3.301-2.209c1.529-1.164,3.01-2.396,4.393-3.785c2.111-2.111,3.908-4.441,5.438-6.82
			c0.169-0.266,0.363-0.51,0.533-0.775c1.238-1.967,2.306-3.975,3.033-5.875c0.875-2.201,1.433-4.223,1.724-5.703
			c0.315-1.475,0.364-2.445,0.364-2.445s-0.971,0.043-2.451,0.359c-1.505,0.291-3.495,0.848-5.703,1.705
			c-2.549,0.994-5.268,2.518-7.912,4.416c-0.826-0.613-1.676-1.146-2.477-1.777c-2.476-1.881-4.921-3.795-7.34-5.739h56.871
			l-8.828-17.914L187.635,111.658z M53.492,141.538h-4.147l-2.822-14.041l-2.821,14.041h-4.147l-4.828-23.798h4.182l2.754,17.645
			h0.103l2.787-17.645h4.147l2.754,17.645h0.103l2.787-17.645h3.943L53.492,141.538z M68.419,141.538l-0.85-5.541h-4.113
			l-0.816,5.541h-4.012l4.896-23.798h4.25l4.896,23.798H68.419z M86.473,141.538l-4.046-9.587c-0.578,0-1.189,0-1.359,0v9.587
			h-4.216V117.74h7.105c4.079,0,6.018,2.992,6.018,6.8c0,3.535-1.53,5.813-3.57,6.833l4.488,10.165H86.473z M104.255,141.538
			l-4.046-9.587c-0.578,0-1.189,0-1.359,0v9.587h-4.216V117.74h7.105c4.079,0,6.018,2.992,6.018,6.8c0,3.535-1.53,5.813-3.57,6.833
			l4.488,10.165H104.255z M116.665,141.538h-4.25V117.74h4.25V141.538z M133.97,136.473c0,2.447-1.904,5.371-6.153,5.371
			c-4.691,0-6.357-2.924-6.357-5.371v-13.735c0-2.448,1.666-5.303,6.357-5.303c4.249,0,6.153,2.855,6.153,5.303V136.473z
			 M148.386,141.538l-4.046-9.587c-0.578,0-1.189,0-1.359,0v9.587h-4.216V117.74h7.105c4.079,0,6.018,2.992,6.018,6.8
			c0,3.535-1.53,5.813-3.57,6.833l4.488,10.165H148.386z"/>
		<path fill="#FFFFFF" d="M181.377,187.909c-10.605-7.396-15.678-11.279-25.41-19.264c-1.602,2.354-3.446,4.66-5.631,6.699
			c-1.456,1.334-3.01,2.518-4.635,3.615c-1.117,0.777-2.281,1.402-3.471,2.063c10.697,9.023,16.334,13.393,28.104,21.746
			c4.369,2.912,10.533,1.869,13.568-2.281C186.936,196.337,185.697,190.726,181.377,187.909z"/>
		<path fill="#FFFFFF" d="M38.67,175.345c-2.185-2.039-4.053-4.346-5.631-6.699c-9.732,8.01-14.829,11.867-25.436,19.264
			c-2.683,1.759-4.172,4.608-4.174,7.511v0.012c0.002,1.741,0.538,3.5,1.675,5.055c1.845,2.572,4.902,3.926,8.009,3.926
			c1.918,0,3.859-0.527,5.559-1.645c11.746-8.354,17.377-12.723,28.08-21.746c-1.165-0.637-2.33-1.285-3.471-2.063
			C41.68,177.862,40.102,176.679,38.67,175.345z"/>
	</g>
	<path fill="none" d="M89.975,124.54c0-3.808-1.938-6.8-6.018-6.8h-7.105v23.798h4.216v-9.587c0.17,0,0.781,0,1.359,0l4.046,9.587
		h4.42l-4.488-10.165C88.444,130.353,89.975,128.075,89.975,124.54z"/>
	<polygon fill="none" points="51.555,135.385 51.452,135.385 48.698,117.74 44.551,117.74 41.764,135.385 41.661,135.385 
		38.907,117.74 34.726,117.74 39.554,141.538 43.701,141.538 46.522,127.498 49.345,141.538 53.492,141.538 58.285,117.74 
		54.342,117.74 	"/>
	<path fill="none" d="M107.757,124.54c0-3.808-1.938-6.8-6.018-6.8h-7.105v23.798h4.216v-9.587c0.17,0,0.781,0,1.359,0l4.046,9.587
		h4.42l-4.488-10.165C106.227,130.353,107.757,128.075,107.757,124.54z"/>
	<polygon fill="none" points="63.523,117.74 58.628,141.538 62.64,141.538 63.456,135.997 67.569,135.997 68.419,141.538 
		72.669,141.538 67.773,117.74 	"/>
	<rect x="112.415" y="117.74" fill="none" width="4.25" height="23.798"/>
	<path fill="none" d="M127.816,117.435c-4.691,0-6.357,2.855-6.357,5.303v13.735c0,2.447,1.666,5.371,6.357,5.371
		c4.249,0,6.153-2.924,6.153-5.371v-13.735C133.97,120.29,132.065,117.435,127.816,117.435z"/>
	<path fill="none" d="M151.888,124.54c0-3.808-1.938-6.8-6.018-6.8h-7.105v23.798h4.216v-9.587c0.17,0,0.781,0,1.359,0l4.046,9.587
		h4.42l-4.488-10.165C150.357,130.353,151.888,128.075,151.888,124.54z"/>
	<g>
		<path fill="none" d="M27.302,142.788c0,0,0.527,62.719,68.6,64.566c0,0,62.096,0.213,66.559-65.688"/>
		
			<text transform="matrix(0.9352 0.3601 -0.3543 0.9328 65.6699 201.3066)" fill="#FFFFFF" font-family="'OstrichSans-Black'" font-size="11.7107">-</text>
		
			<text transform="matrix(0.9568 0.297 -0.291 0.9548 70.3906 203.0869)" fill="#FFFFFF" font-family="'OstrichSans-Black'" font-size="11.7107"> </text>
		
			<text transform="matrix(0.9729 0.2376 -0.2315 0.9713 74.4336 204.3311)" fill="#FFFFFF" font-family="'OstrichSans-Black'" font-size="11.7107">E</text>
		
			<text transform="matrix(0.9856 0.1758 -0.1696 0.9844 79.2764 205.4971)" fill="#FFFFFF" font-family="'OstrichSans-Black'" font-size="11.7107">S</text>
		
			<text transform="matrix(0.9943 0.1133 -0.1071 0.9935 84.457 206.4121)" fill="#FFFFFF" font-family="'OstrichSans-Black'" font-size="11.7107">T</text>
		
			<text transform="matrix(0.9981 0.0693 -0.0631 0.9975 90.3623 207.0361)" fill="#FFFFFF" font-family="'OstrichSans-Black'" font-size="11.7107">.</text>
		
			<text transform="matrix(0.9993 0.0457 -0.0394 0.9989 92.918 207.2041)" fill="#FFFFFF" font-family="'OstrichSans-Black'" font-size="11.7107"> </text>
		
			<text transform="matrix(0.9957 -0.0874 0.0937 0.9961 97.502 207.3115)" fill="#FFFFFF" font-family="'OstrichSans-Black'" font-size="11.7107">2</text>
		
			<text transform="matrix(0.9872 -0.1536 0.1598 0.9881 102.3203 206.8662)" fill="#FFFFFF" font-family="'OstrichSans-Black'" font-size="11.7107">0</text>
		
			<text transform="matrix(0.9771 -0.2069 0.2131 0.9783 107.2266 206.0693)" fill="#FFFFFF" font-family="'OstrichSans-Black'" font-size="11.7107">1</text>
		
			<text transform="matrix(0.9644 -0.2587 0.2649 0.9659 110.8994 205.293)" fill="#FFFFFF" font-family="'OstrichSans-Black'" font-size="11.7107">5</text>
		
			<text transform="matrix(0.9475 -0.3141 0.3201 0.9493 115.6699 203.9844)" fill="#FFFFFF" font-family="'OstrichSans-Black'" font-size="11.7107"> </text>
		
			<text transform="matrix(0.9264 -0.371 0.3769 0.9285 119.6641 202.6553)" fill="#FFFFFF" font-family="'OstrichSans-Black'" font-size="11.7107">-</text>
	</g>
	<g>
		<g>
			<path fill="#FFFFFF" d="M77.277,58.279c0.488,2.568,0.978,5.136,1.465,7.704c0.507,2.76-0.308,5.349-3.079,6.016
				c-1.95,0.476-3.888,1.026-5.808,1.65c-1.885-5.8-3.77-11.601-5.654-17.401c2.355-0.765,4.73-1.439,7.124-2.023
				c2.266-0.554,4.413,0.333,5.232,1.958C76.877,56.839,77.137,57.535,77.277,58.279z M74.349,69.632
				c1.329-0.333,1.423-1.526,1.096-2.955c-0.589-2.547-1.177-5.094-1.767-7.641c-0.326-1.423-0.987-2.462-2.536-2.075
				c-0.772,0.196-1.543,0.401-2.312,0.616c1.174,4.195,2.348,8.391,3.521,12.586C73.016,69.979,73.682,69.801,74.349,69.632z"/>
			<path fill="#FFFFFF" d="M88.082,65.702c-1.121,0.089-2.24,0.2-3.357,0.333c-0.055,1.437-0.096,2.873-0.128,4.309
				c-1.034,0.132-2.066,0.284-3.097,0.456c0.252-6.226,0.793-12.469,1.623-18.709c1.346-0.16,2.693-0.292,4.043-0.396
				c2.025,5.96,3.766,11.98,5.219,18.038c-1.103,0.033-2.204,0.088-3.305,0.167C88.76,68.499,88.426,67.1,88.082,65.702z
				 M87.301,63.118c-0.551-2.148-1.128-4.291-1.732-6.429c-0.03,0.003-0.061,0.006-0.092,0.009
				c-0.184,2.216-0.338,4.432-0.466,6.647C85.773,63.259,86.536,63.184,87.301,63.118z"/>
			<path fill="#FFFFFF" d="M97.625,69.746c-1.102-0.039-2.205-0.054-3.307-0.048c-0.037-6.099-0.074-12.197-0.111-18.296
				c1.353-0.008,2.705,0.011,4.057,0.059C98.051,57.555,97.838,63.65,97.625,69.746z"/>
			<path fill="#FFFFFF" d="M108.193,68.165c-0.141,0.86-0.279,1.72-0.42,2.58c-2.524-0.411-5.063-0.701-7.608-0.87
				c0.405-6.085,0.81-12.171,1.214-18.257c1.35,0.09,2.699,0.208,4.045,0.353c-0.561,5.198-1.12,10.395-1.681,15.593
				C105.23,67.724,106.715,67.924,108.193,68.165z"/>
			<path fill="#FFFFFF" d="M116.018,72.532c-1.039-0.283-2.082-0.545-3.129-0.785c0.531-2.31,1.062-4.619,1.592-6.929
				c-0.539-3.951-1.26-7.907-2.161-11.858c1.305,0.234,2.606,0.495,3.902,0.782c0.267,3.076,0.45,6.146,0.552,9.208
				c0.02,0.004,0.039,0.009,0.058,0.014c1.499-2.66,3.072-5.289,4.719-7.886c1.294,0.363,2.581,0.752,3.863,1.168
				c-2.673,3.052-5.185,6.199-7.527,9.425C117.264,67.959,116.641,70.246,116.018,72.532z"/>
		</g>
	</g>
	<g>
		<path fill="#FFFFFF" d="M101.604,121.14H98.85v7.208h1.359c2.754,0,3.502-0.34,3.502-3.808
			C103.711,122.636,103.269,121.14,101.604,121.14z"/>
	</g>
	<g>
		<polygon fill="#FFFFFF" points="65.495,124.03 64.17,132.563 66.89,132.563 65.598,124.03 		"/>
	</g>
	<g>
		<path fill="#FFFFFF" d="M83.821,121.14h-2.754v7.208h1.359c2.754,0,3.502-0.34,3.502-3.808
			C85.929,122.636,85.486,121.14,83.821,121.14z"/>
	</g>
	<g>
		<path fill="#FFFFFF" d="M127.816,120.766c-1.496,0-2.107,1.292-2.107,1.938v13.7c0,0.782,0.611,2.04,2.107,2.04
			c1.224,0,1.903-1.326,1.903-2.04v-13.632C129.72,122.058,129.04,120.766,127.816,120.766z"/>
	</g>
	<g>
		<path fill="#FFFFFF" d="M145.734,121.14h-2.754v7.208h1.359c2.754,0,3.502-0.34,3.502-3.808
			C147.842,122.636,147.399,121.14,145.734,121.14z"/>
	</g>
</g>
</svg>
