<?xml version="1.0" encoding="utf-8"?>
<!-- Generator: Adobe Illustrator 16.0.0, SVG Export Plug-In . SVG Version: 6.00 Build 0)  -->
<!DOCTYPE svg PUBLIC "-//W3C//DTD SVG 1.1//EN" "http://www.w3.org/Graphics/SVG/1.1/DTD/svg11.dtd">
<svg version="1.1" id="Layer_1" xmlns="http://www.w3.org/2000/svg" xmlns:xlink="http://www.w3.org/1999/xlink" x="0px" y="0px"
	 width="211.654px" height="41px" viewBox="0 0 211.654 41" enable-background="new 0 0 211.654 41" xml:space="preserve">
<g>
	<g>
		<g>
			<path fill="none" d="M8.796,28.027c0,0,0.104,12.483,13.654,12.853c0,0,12.358,0.042,13.246-13.075"/>
			<text transform="matrix(0.9364 0.363 -0.3572 0.934 16.3977 39.6709)" font-family="'OstrichSans-Black'" font-size="2.3258">-</text>
			<text transform="matrix(0.9585 0.2981 -0.2921 0.9564 17.3572 40.0332)" font-family="'OstrichSans-Black'" font-size="2.3265"> </text>
			<text transform="matrix(0.974 0.2399 -0.2338 0.9723 18.1428 40.2764)" font-family="'OstrichSans-Black'" font-size="2.3273">E</text>
			<text transform="matrix(0.9866 0.1765 -0.1703 0.9854 19.1262 40.5137)" font-family="'OstrichSans-Black'" font-size="2.3283">S</text>
			<text transform="matrix(0.9952 0.1132 -0.107 0.9943 20.1702 40.6982)" font-family="'OstrichSans-Black'" font-size="2.3291">T</text>
			<text transform="matrix(0.9986 0.0693 -0.063 0.998 21.3411 40.8203)" font-family="'OstrichSans-Black'" font-size="2.3297">.</text>
			<text transform="matrix(0.9996 0.0457 -0.0394 0.9992 21.8738 40.8564)" font-family="'OstrichSans-Black'" font-size="2.3301"> </text>
			<text transform="matrix(0.9951 -0.0882 0.0945 0.9955 22.7717 40.877)" font-family="'OstrichSans-Black'" font-size="2.332">2</text>
			<text transform="matrix(0.9861 -0.155 0.1612 0.9869 23.7473 40.7852)" font-family="'OstrichSans-Black'" font-size="2.333">0</text>
			<text transform="matrix(0.9756 -0.208 0.2142 0.9768 24.7209 40.625)" font-family="'OstrichSans-Black'" font-size="2.3338">1</text>
			<text transform="matrix(0.9626 -0.2593 0.2655 0.9641 25.4475 40.4707)" font-family="'OstrichSans-Black'" font-size="2.3345">5</text>
			<text transform="matrix(0.9448 -0.316 0.322 0.9467 26.4172 40.2021)" font-family="'OstrichSans-Black'" font-size="2.3352"> </text>
			<text transform="matrix(0.9231 -0.3733 0.3792 0.9253 27.219 39.9326)" font-family="'OstrichSans-Black'" font-size="2.3359">-</text>
		</g>
		<g>
			<g>
				<path d="M18.744,11.208c0.097,0.511,0.193,1.022,0.291,1.533c0.1,0.55-0.063,1.065-0.613,1.198
					c-0.388,0.095-0.773,0.204-1.155,0.328c-0.375-1.155-0.751-2.309-1.126-3.464c0.469-0.152,0.941-0.287,1.418-0.403
					c0.45-0.11,0.879,0.066,1.042,0.39C18.664,10.92,18.718,11.059,18.744,11.208z M18.16,13.467
					c0.267-0.066,0.283-0.303,0.219-0.588c-0.117-0.507-0.234-1.014-0.353-1.521c-0.063-0.284-0.196-0.491-0.506-0.413
					c-0.152,0.039-0.306,0.08-0.459,0.122c0.234,0.835,0.467,1.67,0.701,2.505C17.896,13.536,18.027,13.5,18.16,13.467z"/>
				<path d="M20.895,12.685c-0.223,0.018-0.445,0.04-0.669,0.066c-0.011,0.286-0.019,0.572-0.024,0.857
					c-0.206,0.026-0.411,0.057-0.616,0.091c0.05-1.239,0.157-2.482,0.322-3.724c0.269-0.032,0.535-0.058,0.805-0.079
					c0.403,1.187,0.75,2.385,1.04,3.591c-0.22,0.006-0.438,0.018-0.658,0.033C21.029,13.242,20.964,12.963,20.895,12.685z
					 M20.738,12.17c-0.108-0.427-0.225-0.854-0.345-1.28c-0.007,0.001-0.013,0.001-0.019,0.002
					c-0.036,0.441-0.067,0.882-0.092,1.323C20.436,12.199,20.586,12.184,20.738,12.17z"/>
				<path d="M22.794,13.49c-0.22-0.008-0.438-0.011-0.658-0.009c-0.008-1.214-0.015-2.428-0.022-3.642
					c0.271-0.002,0.539,0.002,0.809,0.011C22.879,11.063,22.836,12.276,22.794,13.49z"/>
				<path d="M24.898,13.175c-0.027,0.171-0.056,0.342-0.084,0.514c-0.503-0.082-1.008-0.14-1.515-0.173
					c0.08-1.212,0.161-2.423,0.241-3.634c0.27,0.018,0.538,0.041,0.806,0.07c-0.111,1.035-0.223,2.069-0.335,3.104
					C24.309,13.087,24.604,13.127,24.898,13.175z"/>
				<path d="M26.455,14.044c-0.206-0.056-0.415-0.108-0.623-0.156c0.104-0.46,0.211-0.919,0.315-1.379
					c-0.106-0.786-0.25-1.574-0.43-2.36c0.26,0.046,0.519,0.098,0.776,0.156c0.054,0.612,0.09,1.223,0.109,1.833
					c0.004,0.001,0.008,0.002,0.013,0.003c0.299-0.529,0.61-1.053,0.938-1.57c0.259,0.072,0.515,0.15,0.771,0.233
					c-0.533,0.608-1.033,1.234-1.499,1.876C26.703,13.134,26.579,13.589,26.455,14.044z"/>
			</g>
		</g>
	</g>
	<g>
		<path fill="none" d="M24.81,24.396c0-0.758-0.386-1.354-1.198-1.354h-1.413v4.735h0.84v-1.906c0.032,0,0.153,0,0.271,0
			l0.804,1.906h0.882L24.1,25.755C24.506,25.552,24.81,25.1,24.81,24.396z M23.308,25.152h-0.271v-1.435h0.547
			c0.332,0,0.421,0.298,0.421,0.677C24.005,25.085,23.855,25.152,23.308,25.152z"/>
		<path fill="none" d="M21.271,24.396c0-0.758-0.387-1.354-1.199-1.354h-1.413v4.735h0.84v-1.906c0.032,0,0.154,0,0.271,0
			l0.806,1.906h0.879l-0.894-2.022C20.965,25.552,21.271,25.1,21.271,24.396z M19.769,25.152h-0.271v-1.435h0.547
			c0.332,0,0.42,0.298,0.42,0.677C20.465,25.085,20.316,25.152,19.769,25.152z"/>
		<polygon fill="none" points="13.623,26.555 13.602,26.555 13.055,23.042 12.229,23.042 11.676,26.555 11.654,26.555 
			11.105,23.042 10.274,23.042 11.233,27.777 12.061,27.777 12.622,24.984 13.185,27.777 14.009,27.777 14.963,23.042 
			14.178,23.042 		"/>
		<rect x="25.737" y="23.042" fill="none" width="0.846" height="4.735"/>
		<path fill="none" d="M16.006,23.042l-0.976,4.735h0.801l0.161-1.103h0.818l0.169,1.103h0.846l-0.975-4.735H16.006z M16.134,25.992
			l0.265-1.699h0.021l0.258,1.699H16.134z"/>
		<path fill="none" d="M33.593,24.396c0-0.758-0.385-1.354-1.196-1.354h-1.415v4.735h0.84v-1.906c0.033,0,0.154,0,0.271,0
			l0.805,1.906h0.88l-0.892-2.022C33.289,25.552,33.593,25.1,33.593,24.396z M32.092,25.152h-0.271v-1.435h0.548
			c0.333,0,0.421,0.298,0.421,0.677C32.789,25.085,32.64,25.152,32.092,25.152z"/>
		<path fill="none" d="M28.803,22.98c-0.935,0-1.265,0.569-1.265,1.056v2.733c0,0.487,0.33,1.069,1.265,1.069
			c0.846,0,1.225-0.582,1.225-1.069v-2.733C30.027,23.55,29.648,22.98,28.803,22.98z M29.182,26.756
			c0,0.143-0.135,0.407-0.379,0.407c-0.297,0-0.419-0.25-0.419-0.407V24.03c0-0.128,0.122-0.386,0.419-0.386
			c0.244,0,0.379,0.258,0.379,0.399V26.756z"/>
		<path d="M40.709,21.831H26.95c3.765-4.262,7.137-8.89,10.248-13.59c0.179-0.27,0.356-0.541,0.529-0.801
			c1.035-1.367,1.456-3.46,1.948-5.073C40.13,0.889,40.3,0.009,40.3,0c-0.092,0.474-1.214,1.342-1.513,1.672
			c-1.464,1.627-2.765,3.26-4.086,4.967c-0.705,1.062-1.439,2.236-2.296,3.419c-2.987,4.136-6.209,8.098-9.729,11.773h-1.005
			c-3.431-3.607-6.814-7.729-9.733-11.773C11.082,8.87,10.35,7.701,9.643,6.639c-1.327-1.701-2.622-3.34-4.092-4.967
			C5.258,1.342,4.136,0.474,4.044,0c0,0.009,0.17,0.889,0.624,2.367C5.16,3.98,5.581,6.073,6.614,7.44
			c0.175,0.261,0.349,0.531,0.532,0.801c3.108,4.705,6.484,9.332,10.253,13.59H3.687l1.756,3.552l-1.756,3.565h11.268
			c-0.483,0.389-0.971,0.771-1.464,1.146c-0.159,0.122-0.329,0.227-0.488,0.35c-0.528-0.371-1.068-0.676-1.574-0.875
			c-0.44-0.174-0.841-0.285-1.138-0.344c-0.295-0.063-0.486-0.072-0.486-0.072s0.01,0.193,0.071,0.488
			c0.059,0.299,0.171,0.696,0.339,1.135c0.149,0.377,0.362,0.777,0.609,1.174c0.026,0.053,0.071,0.101,0.106,0.148
			c0.303,0.475,0.659,0.943,1.081,1.363c0.271,0.271,0.569,0.518,0.874,0.748c0.213,0.165,0.435,0.301,0.656,0.441
			c0.387,0.246,0.771,0.463,1.146,0.607c0.444,0.172,0.84,0.282,1.141,0.34c0.296,0.057,0.488,0.065,0.488,0.065
			s-0.012-0.192-0.072-0.486c-0.06-0.296-0.17-0.696-0.341-1.135c-0.172-0.454-0.434-0.933-0.748-1.407
			c1.617-1.15,3.17-2.388,4.663-3.688h4.707c1.493,1.3,3.045,2.535,4.659,3.683c-0.313,0.479-0.57,0.958-0.748,1.412
			c-0.168,0.438-0.275,0.835-0.339,1.135c-0.059,0.294-0.067,0.486-0.067,0.486s0.192-0.011,0.488-0.071
			c0.3-0.059,0.694-0.17,1.135-0.338c0.372-0.146,0.765-0.363,1.149-0.604c0.223-0.141,0.44-0.281,0.656-0.441
			c0.304-0.23,0.6-0.477,0.875-0.753c0.421-0.42,0.777-0.884,1.082-1.358c0.034-0.052,0.072-0.101,0.105-0.154
			c0.247-0.391,0.459-0.791,0.604-1.168c0.176-0.438,0.287-0.842,0.345-1.135c0.063-0.295,0.071-0.488,0.071-0.488
			s-0.193,0.01-0.488,0.072c-0.299,0.059-0.694,0.168-1.135,0.34c-0.507,0.197-1.049,0.5-1.574,0.879
			c-0.166-0.123-0.334-0.229-0.494-0.354c-0.492-0.375-0.979-0.756-1.46-1.144h11.319l-1.757-3.564L40.709,21.831z M14.009,27.777
			h-0.824l-0.563-2.793l-0.563,2.793h-0.827l-0.959-4.735h0.831l0.549,3.513h0.021l0.553-3.513h0.826l0.547,3.513h0.021l0.555-3.513
			h0.785L14.009,27.777z M16.98,27.777l-0.169-1.103h-0.818l-0.161,1.103h-0.801l0.976-4.735h0.846l0.975,4.735H16.98z
			 M20.573,27.777l-0.806-1.906c-0.115,0-0.237,0-0.271,0v1.906h-0.84v-4.735h1.413c0.813,0,1.199,0.595,1.199,1.354
			c0,0.703-0.307,1.156-0.712,1.359l0.894,2.023h-0.878V27.777z M24.111,27.777l-0.804-1.906c-0.116,0-0.237,0-0.271,0v1.906h-0.841
			v-4.735h1.414c0.813,0,1.198,0.595,1.198,1.354c0,0.703-0.304,1.156-0.71,1.359l0.894,2.023h-0.881V27.777z M26.582,27.777h-0.846
			v-4.735h0.846V27.777z M30.027,26.771c0,0.486-0.379,1.068-1.225,1.068c-0.935,0-1.265-0.582-1.265-1.068v-2.734
			c0-0.486,0.33-1.055,1.265-1.055c0.846,0,1.225,0.568,1.225,1.055V26.771z M32.896,27.777l-0.805-1.906c-0.116,0-0.237,0-0.271,0
			v1.906h-0.84v-4.735h1.415c0.813,0,1.196,0.595,1.196,1.354c0,0.703-0.304,1.156-0.708,1.359l0.892,2.023h-0.879V27.777z"/>
		<path d="M39.465,37.008c-2.112-1.473-3.122-2.244-5.06-3.833c-0.318,0.468-0.687,0.927-1.12,1.333
			c-0.29,0.266-0.6,0.5-0.922,0.719c-0.225,0.154-0.455,0.278-0.691,0.41c2.131,1.797,3.251,2.666,5.594,4.329
			c0.87,0.579,2.098,0.372,2.7-0.455C40.57,38.686,40.324,37.568,39.465,37.008z"/>
		<path d="M11.059,34.508c-0.435-0.406-0.807-0.865-1.121-1.333c-1.937,1.595-2.95,2.361-5.063,3.833
			c-0.533,0.35-0.831,0.917-0.831,1.496v0.002c0,0.348,0.107,0.697,0.335,1.006c0.364,0.512,0.975,0.782,1.593,0.782
			c0.382,0,0.77-0.104,1.106-0.327c2.337-1.664,3.458-2.533,5.588-4.328c-0.23-0.127-0.462-0.257-0.69-0.41
			C11.657,35.009,11.344,34.773,11.059,34.508z"/>
		<g>
			<path d="M23.584,23.719h-0.547v1.434h0.271c0.548,0,0.697-0.066,0.697-0.756C24.005,24.016,23.916,23.719,23.584,23.719z"/>
		</g>
		<g>
			<polygon points="16.398,24.293 16.134,25.992 16.676,25.992 16.418,24.293 			"/>
		</g>
		<g>
			<path d="M20.045,23.719h-0.547v1.434h0.271c0.548,0,0.696-0.066,0.696-0.756C20.465,24.016,20.377,23.719,20.045,23.719z"/>
		</g>
		<g>
			<path d="M28.803,23.645c-0.297,0-0.419,0.258-0.419,0.386v2.727c0,0.156,0.122,0.407,0.419,0.407
				c0.244,0,0.379-0.266,0.379-0.407v-2.713C29.182,23.9,29.047,23.645,28.803,23.645z"/>
		</g>
		<g>
			<path d="M32.368,23.719h-0.548v1.434h0.271c0.548,0,0.697-0.066,0.697-0.756C32.789,24.016,32.701,23.719,32.368,23.719z"/>
		</g>
	</g>
</g>
<g enable-background="new    ">
	<path d="M65.772,17.524v7.869c0,2.807-1.259,5.246-4.092,5.246h-5.928V12.278h5.928c1.862,0,3.41,1.286,3.83,3.043
		C65.667,16.029,65.772,16.764,65.772,17.524z M60.998,28.017c1.312,0,1.653-1.154,1.653-2.623v-7.869
		c0-1.469-0.341-2.623-1.653-2.623h-1.967v13.115H60.998z"/>
	<path d="M74.797,26.364h-3.174l-0.629,4.275h-3.095l3.777-18.361h3.279l3.777,18.361h-3.279L74.797,26.364z M74.273,23.715
		l-0.997-6.584h-0.079l-1.023,6.584H74.273z"/>
	<path d="M84.924,30.64h-3.279V12.278h3.279V30.64z"/>
	<path d="M96.02,28.017v2.623h-7.58V12.278h3.278v15.738H96.02z"/>
	<path d="M103.365,30.64h-3.174v-7.135l-3.83-11.227h3.2l2.229,8.866h0.052l2.125-8.866h3.226l-3.829,11.227V30.64z"/>
	<path d="M133.532,12.278l-3.698,18.361h-3.2l-2.178-10.833l-2.176,10.833h-3.201l-3.725-18.361h3.227l2.125,13.613h0.078
		l2.151-13.613h3.2l2.125,13.613h0.078l2.15-13.613H133.532z"/>
	<path d="M140.382,26.364h-3.174l-0.63,4.275h-3.095l3.776-18.361h3.278l3.777,18.361h-3.278L140.382,26.364z M139.857,23.715
		l-0.996-6.584h-0.079l-1.022,6.584H139.857z"/>
	<path d="M154.653,30.64l-3.122-7.396c-0.445,0-0.918,0-1.049,0v7.396h-3.252V12.278h5.482c3.146,0,4.643,2.309,4.643,5.246
		c0,2.729-1.181,4.485-2.755,5.272l3.462,7.843H154.653z M150.482,20.463h1.049c2.125,0,2.702-0.263,2.702-2.938
		c0-1.469-0.341-2.623-1.626-2.623h-2.125V20.463z"/>
	<path d="M168.058,30.64l-3.122-7.396c-0.446,0-0.918,0-1.049,0v7.396h-3.253V12.278h5.482c3.147,0,4.643,2.309,4.643,5.246
		c0,2.729-1.18,4.485-2.754,5.272l3.462,7.843H168.058z M163.887,20.463h1.049c2.125,0,2.702-0.263,2.702-2.938
		c0-1.469-0.342-2.623-1.627-2.623h-2.124V20.463z"/>
	<path d="M177.318,30.64h-3.278V12.278h3.278V30.64z"/>
	<path d="M190.355,16.135v10.597c0,1.889-1.469,4.145-4.747,4.145c-3.62,0-4.905-2.256-4.905-4.145V16.135
		c0-1.889,1.285-4.092,4.905-4.092C188.886,12.043,190.355,14.246,190.355,16.135z M187.077,16.161c0-0.551-0.525-1.548-1.47-1.548
		c-1.153,0-1.626,0.997-1.626,1.495v10.57c0,0.604,0.473,1.574,1.626,1.574c0.944,0,1.47-1.023,1.47-1.574V16.161z"/>
	<path d="M201.164,30.64l-3.122-7.396c-0.445,0-0.918,0-1.049,0v7.396h-3.252V12.278h5.482c3.146,0,4.643,2.309,4.643,5.246
		c0,2.729-1.181,4.485-2.755,5.272l3.462,7.843H201.164z M196.993,20.463h1.049c2.125,0,2.702-0.263,2.702-2.938
		c0-1.469-0.341-2.623-1.626-2.623h-2.125V20.463z"/>
</g>
</svg>
