<?xml version="1.0" encoding="utf-8"?>
<!-- Generator: Adobe Illustrator 16.0.0, SVG Export Plug-In . SVG Version: 6.00 Build 0)  -->
<!DOCTYPE svg PUBLIC "-//W3C//DTD SVG 1.1//EN" "http://www.w3.org/Graphics/SVG/1.1/DTD/svg11.dtd">
<svg version="1.1" id="Layer_1" xmlns="http://www.w3.org/2000/svg" xmlns:xlink="http://www.w3.org/1999/xlink" x="0px" y="0px"
	 width="189.268px" height="209.333px" viewBox="0 0 189.268 209.333" enable-background="new 0 0 189.268 209.333"
	 xml:space="preserve">
<g>
	<g>
		<g>
			<path fill="none" d="M27.286,143.086c0,0,0.527,62.719,68.6,64.566c0,0,62.096,0.213,66.559-65.688"/>
			
				<text transform="matrix(0.9352 0.3601 -0.3543 0.9328 65.6543 201.6045)" font-family="'OstrichSans-Black'" font-size="11.7107">-</text>
			<text transform="matrix(0.9568 0.297 -0.291 0.9548 70.375 203.3848)" font-family="'OstrichSans-Black'" font-size="11.7107"> </text>
			<text transform="matrix(0.9729 0.2376 -0.2315 0.9713 74.418 204.6289)" font-family="'OstrichSans-Black'" font-size="11.7107">E</text>
			
				<text transform="matrix(0.9856 0.1758 -0.1696 0.9844 79.2607 205.7949)" font-family="'OstrichSans-Black'" font-size="11.7107">S</text>
			<text transform="matrix(0.9943 0.1133 -0.1071 0.9935 84.4414 206.71)" font-family="'OstrichSans-Black'" font-size="11.7107">T</text>
			<text transform="matrix(0.9981 0.0693 -0.0631 0.9975 90.3467 207.334)" font-family="'OstrichSans-Black'" font-size="11.7107">.</text>
			<text transform="matrix(0.9993 0.0457 -0.0394 0.9989 92.9023 207.502)" font-family="'OstrichSans-Black'" font-size="11.7107"> </text>
			
				<text transform="matrix(0.9957 -0.0874 0.0937 0.9961 97.4863 207.6094)" font-family="'OstrichSans-Black'" font-size="11.7107">2</text>
			
				<text transform="matrix(0.9872 -0.1536 0.1598 0.9881 102.3047 207.1641)" font-family="'OstrichSans-Black'" font-size="11.7107">0</text>
			
				<text transform="matrix(0.9771 -0.2069 0.2131 0.9783 107.2109 206.3672)" font-family="'OstrichSans-Black'" font-size="11.7107">1</text>
			
				<text transform="matrix(0.9644 -0.2587 0.2649 0.9659 110.8838 205.5908)" font-family="'OstrichSans-Black'" font-size="11.7107">5</text>
			
				<text transform="matrix(0.9475 -0.3141 0.3201 0.9493 115.6543 204.2822)" font-family="'OstrichSans-Black'" font-size="11.7107"> </text>
			
				<text transform="matrix(0.9264 -0.371 0.3769 0.9285 119.6484 202.9531)" font-family="'OstrichSans-Black'" font-size="11.7107">-</text>
		</g>
		<g>
			<g>
				<path d="M77.262,58.577c0.488,2.568,0.977,5.136,1.465,7.704c0.506,2.761-0.309,5.35-3.079,6.016
					c-1.95,0.476-3.888,1.026-5.808,1.65c-1.885-5.8-3.77-11.601-5.654-17.401c2.355-0.765,4.73-1.439,7.124-2.023
					c2.267-0.555,4.412,0.333,5.232,1.958C76.862,57.137,77.119,57.833,77.262,58.577z M74.333,69.93
					c1.33-0.333,1.423-1.525,1.096-2.955c-0.589-2.547-1.177-5.094-1.767-7.641c-0.326-1.423-0.987-2.463-2.536-2.075
					c-0.772,0.196-1.543,0.401-2.312,0.616c1.174,4.195,2.348,8.391,3.521,12.586C73,70.276,73.666,70.099,74.333,69.93z"/>
				<path d="M88.066,66c-1.121,0.089-2.24,0.2-3.357,0.333c-0.055,1.437-0.096,2.873-0.128,4.309
					c-1.034,0.132-2.066,0.284-3.097,0.456c0.252-6.226,0.793-12.469,1.623-18.709c1.346-0.16,2.693-0.292,4.043-0.396
					c2.025,5.96,3.766,11.98,5.219,18.038c-1.103,0.033-2.204,0.088-3.305,0.167C88.744,68.796,88.41,67.397,88.066,66z
					 M87.285,63.416c-0.551-2.148-1.128-4.291-1.732-6.429c-0.03,0.003-0.061,0.006-0.092,0.009
					c-0.184,2.216-0.338,4.432-0.466,6.647C85.758,63.557,86.521,63.481,87.285,63.416z"/>
				<path d="M97.609,70.043c-1.102-0.039-2.205-0.054-3.307-0.048c-0.037-6.099-0.074-12.197-0.111-18.296
					c1.353-0.008,2.705,0.011,4.057,0.059C98.035,57.853,97.822,63.948,97.609,70.043z"/>
				<path d="M108.178,68.462c-0.14,0.86-0.279,1.72-0.42,2.58c-2.523-0.411-5.063-0.701-7.608-0.87
					c0.404-6.085,0.81-12.171,1.214-18.257c1.35,0.09,2.699,0.208,4.045,0.353c-0.561,5.198-1.12,10.395-1.681,15.593
					C105.215,68.021,106.699,68.222,108.178,68.462z"/>
				<path d="M116.002,72.83c-1.038-0.283-2.082-0.545-3.129-0.785c0.531-2.31,1.062-4.619,1.592-6.929
					c-0.539-3.951-1.26-7.907-2.161-11.858c1.305,0.234,2.605,0.495,3.902,0.782c0.267,3.076,0.45,6.146,0.552,9.208
					c0.02,0.004,0.039,0.009,0.058,0.014c1.499-2.66,3.072-5.289,4.719-7.886c1.293,0.363,2.581,0.752,3.863,1.168
					c-2.673,3.053-5.185,6.199-7.527,9.425C117.248,68.257,116.625,70.543,116.002,72.83z"/>
			</g>
		</g>
	</g>
	<g>
		<path fill="none" d="M107.741,124.838c0-3.808-1.938-6.8-6.018-6.8h-7.105v23.798h4.216v-9.587c0.17,0,0.781,0,1.359,0
			l4.046,9.587h4.42l-4.488-10.165C106.211,130.651,107.741,128.373,107.741,124.838z M100.193,128.646h-1.359v-7.208h2.754
			c1.665,0,2.107,1.496,2.107,3.4C103.695,128.305,102.947,128.646,100.193,128.646z"/>
		<path fill="none" d="M89.959,124.838c0-3.808-1.938-6.8-6.018-6.8h-7.105v23.798h4.216v-9.587c0.17,0,0.781,0,1.359,0l4.046,9.587
			h4.42l-4.488-10.165C88.429,130.651,89.959,128.373,89.959,124.838z M82.411,128.646h-1.359v-7.208h2.754
			c1.665,0,2.107,1.496,2.107,3.4C85.913,128.305,85.165,128.646,82.411,128.646z"/>
		<polygon fill="none" points="51.539,135.683 51.437,135.683 48.683,118.038 44.535,118.038 41.748,135.683 41.646,135.683 
			38.892,118.038 34.71,118.038 39.538,141.836 43.686,141.836 46.507,127.795 49.329,141.836 53.477,141.836 58.27,118.038 
			54.326,118.038 		"/>
		<rect x="112.399" y="118.038" fill="none" width="4.25" height="23.798"/>
		<path fill="none" d="M63.508,118.038l-4.896,23.798h4.012l0.816-5.541h4.113l0.85,5.541h4.25l-4.896-23.798H63.508z
			 M64.154,132.861l1.325-8.533h0.103l1.292,8.533H64.154z"/>
		<path fill="none" d="M151.872,124.838c0-3.808-1.938-6.8-6.018-6.8h-7.105v23.798h4.216v-9.587c0.17,0,0.781,0,1.359,0
			l4.046,9.587h4.42l-4.488-10.165C150.342,130.651,151.872,128.373,151.872,124.838z M144.324,128.646h-1.359v-7.208h2.754
			c1.665,0,2.107,1.496,2.107,3.4C147.826,128.305,147.078,128.646,144.324,128.646z"/>
		<path fill="none" d="M127.801,117.732c-4.691,0-6.357,2.855-6.357,5.303v13.735c0,2.447,1.666,5.371,6.357,5.371
			c4.249,0,6.153-2.924,6.153-5.371v-13.735C133.954,120.588,132.05,117.732,127.801,117.732z M129.704,136.702
			c0,0.714-0.68,2.04-1.903,2.04c-1.496,0-2.107-1.258-2.107-2.04v-13.7c0-0.646,0.611-1.938,2.107-1.938
			c1.224,0,1.903,1.292,1.903,2.006V136.702z"/>
		<path d="M187.619,111.956h-69.123c18.913-21.411,35.854-44.663,51.483-68.276c0.897-1.357,1.796-2.715,2.669-4.025
			c5.194-6.865,7.306-17.381,9.781-25.488c2.281-7.426,3.131-11.844,3.131-11.891c-0.461,2.377-6.092,6.746-7.596,8.4
			c-7.354,8.176-13.883,16.381-20.533,24.951c-3.543,5.338-7.232,11.232-11.528,17.178c-15.013,20.781-31.191,40.684-48.882,59.151
			H91.98C74.733,93.834,57.735,73.124,43.071,52.805c-4.296-5.971-7.985-11.84-11.528-17.178
			c-6.674-8.543-13.179-16.775-20.557-24.951c-1.48-1.654-7.111-6.023-7.572-8.4c0,0.047,0.85,4.465,3.131,11.891
			c2.476,8.107,4.587,18.623,9.781,25.488c0.873,1.311,1.747,2.668,2.67,4.025c15.62,23.635,32.579,46.881,51.519,68.276H1.617
			l8.828,17.844l-8.828,17.914h56.607c-2.427,1.952-4.877,3.878-7.363,5.763c-0.801,0.607-1.65,1.141-2.451,1.754
			c-2.645-1.869-5.363-3.398-7.912-4.393c-2.208-0.881-4.223-1.438-5.703-1.729c-1.48-0.316-2.451-0.359-2.451-0.359
			s0.049,0.971,0.364,2.445c0.291,1.506,0.85,3.502,1.698,5.703c0.753,1.9,1.82,3.908,3.059,5.898
			c0.146,0.268,0.364,0.51,0.534,0.752c1.528,2.379,3.325,4.732,5.437,6.844c1.359,1.365,2.863,2.598,4.393,3.762
			c1.068,0.826,2.185,1.512,3.301,2.209c1.941,1.238,3.883,2.33,5.752,3.059c2.232,0.855,4.223,1.414,5.729,1.705
			c1.48,0.285,2.451,0.334,2.451,0.334s-0.049-0.971-0.365-2.445c-0.291-1.486-0.849-3.502-1.698-5.703
			c-0.874-2.281-2.185-4.686-3.762-7.068c8.124-5.786,15.913-11.996,23.425-18.53h23.641c7.509,6.532,15.305,12.737,23.414,18.505
			c-1.577,2.408-2.863,4.813-3.762,7.094c-0.85,2.201-1.383,4.197-1.699,5.703c-0.291,1.475-0.34,2.445-0.34,2.445
			s0.972-0.049,2.452-0.359c1.505-0.291,3.495-0.855,5.703-1.703c1.869-0.729,3.835-1.82,5.776-3.035
			c1.117-0.697,2.209-1.406,3.301-2.209c1.529-1.164,3.01-2.396,4.393-3.785c2.111-2.111,3.908-4.441,5.438-6.82
			c0.169-0.266,0.363-0.51,0.533-0.775c1.238-1.967,2.306-3.975,3.033-5.875c0.875-2.201,1.433-4.223,1.724-5.703
			c0.315-1.475,0.364-2.445,0.364-2.445s-0.971,0.043-2.451,0.359c-1.505,0.291-3.495,0.848-5.703,1.705
			c-2.549,0.994-5.268,2.518-7.912,4.416c-0.826-0.613-1.676-1.146-2.477-1.777c-2.476-1.881-4.921-3.795-7.34-5.739h56.871
			l-8.828-17.914L187.619,111.956z M53.477,141.836h-4.147l-2.822-14.041l-2.821,14.041h-4.147l-4.828-23.798h4.182l2.754,17.645
			h0.103l2.787-17.645h4.147l2.754,17.645h0.103l2.787-17.645h3.943L53.477,141.836z M68.403,141.836l-0.85-5.541H63.44
			l-0.816,5.541h-4.012l4.896-23.798h4.25l4.896,23.798H68.403z M86.457,141.836l-4.046-9.587c-0.578,0-1.189,0-1.359,0v9.587
			h-4.216v-23.798h7.105c4.079,0,6.018,2.992,6.018,6.8c0,3.535-1.53,5.813-3.57,6.833l4.488,10.165H86.457z M104.239,141.836
			l-4.046-9.587c-0.578,0-1.189,0-1.359,0v9.587h-4.216v-23.798h7.105c4.079,0,6.018,2.992,6.018,6.8c0,3.535-1.53,5.813-3.57,6.833
			l4.488,10.165H104.239z M116.649,141.836h-4.25v-23.798h4.25V141.836z M133.954,136.771c0,2.447-1.904,5.371-6.153,5.371
			c-4.691,0-6.357-2.924-6.357-5.371v-13.735c0-2.448,1.666-5.303,6.357-5.303c4.249,0,6.153,2.855,6.153,5.303V136.771z
			 M148.37,141.836l-4.046-9.587c-0.578,0-1.189,0-1.359,0v9.587h-4.216v-23.798h7.105c4.079,0,6.018,2.992,6.018,6.8
			c0,3.535-1.53,5.813-3.57,6.833l4.488,10.165H148.37z"/>
		<path d="M181.361,188.207c-10.605-7.396-15.678-11.279-25.41-19.264c-1.602,2.354-3.446,4.66-5.631,6.699
			c-1.456,1.334-3.01,2.518-4.635,3.615c-1.117,0.777-2.281,1.402-3.471,2.063c10.697,9.023,16.334,13.393,28.104,21.746
			c4.369,2.912,10.533,1.869,13.568-2.281C186.92,196.635,185.682,191.023,181.361,188.207z"/>
		<path d="M38.654,175.643c-2.185-2.039-4.053-4.346-5.631-6.699c-9.732,8.01-14.829,11.867-25.436,19.264
			c-2.683,1.759-4.172,4.608-4.174,7.511v0.012c0.002,1.741,0.538,3.5,1.675,5.055c1.845,2.572,4.902,3.926,8.009,3.926
			c1.918,0,3.859-0.527,5.559-1.645c11.746-8.354,17.377-12.723,28.08-21.746c-1.165-0.637-2.33-1.285-3.471-2.063
			C41.664,178.16,40.086,176.977,38.654,175.643z"/>
		<g>
			<path d="M101.588,121.438h-2.754v7.208h1.359c2.754,0,3.502-0.34,3.502-3.808C103.695,122.934,103.253,121.438,101.588,121.438z"
				/>
		</g>
		<g>
			<polygon points="65.479,124.328 64.154,132.861 66.874,132.861 65.582,124.328 			"/>
		</g>
		<g>
			<path d="M83.806,121.438h-2.754v7.208h1.359c2.754,0,3.502-0.34,3.502-3.808C85.913,122.934,85.471,121.438,83.806,121.438z"/>
		</g>
		<g>
			<path d="M127.801,121.064c-1.496,0-2.107,1.292-2.107,1.938v13.7c0,0.782,0.611,2.04,2.107,2.04c1.224,0,1.903-1.326,1.903-2.04
				V123.07C129.704,122.356,129.024,121.064,127.801,121.064z"/>
		</g>
		<g>
			<path d="M145.719,121.438h-2.754v7.208h1.359c2.754,0,3.502-0.34,3.502-3.808C147.826,122.934,147.384,121.438,145.719,121.438z"
				/>
		</g>
	</g>
</g>
</svg>
