<?xml version="1.0" encoding="utf-8"?>
<!-- Generator: Adobe Illustrator 16.0.0, SVG Export Plug-In . SVG Version: 6.00 Build 0)  -->
<!DOCTYPE svg PUBLIC "-//W3C//DTD SVG 1.1//EN" "http://www.w3.org/Graphics/SVG/1.1/DTD/svg11.dtd">
<svg version="1.1" id="Layer_1" xmlns="http://www.w3.org/2000/svg" xmlns:xlink="http://www.w3.org/1999/xlink" x="0px" y="0px"
	 width="260px" height="260px" viewBox="0 0 260 260" enable-background="new 0 0 260 260" xml:space="preserve">
<g>
	<g>
		<path fill="#FFFFFF" d="M235.954,138.112h-78.537c21.489-24.327,40.736-50.746,58.495-77.575c1.02-1.542,2.041-3.085,3.032-4.574
			c5.901-7.8,8.301-19.748,11.113-28.96c2.593-8.437,3.558-13.457,3.558-13.51c-0.523,2.7-6.922,7.665-8.631,9.544
			c-8.355,9.29-15.773,18.612-23.329,28.349c-4.025,6.065-8.218,12.763-13.099,19.518c-17.058,23.611-35.439,46.225-55.539,67.208
			h-5.728c-19.597-20.59-38.909-44.121-55.571-67.208c-4.881-6.784-9.072-13.453-13.098-19.518
			c-7.583-9.706-14.974-19.06-23.356-28.349c-1.683-1.879-8.08-6.844-8.604-9.544c0,0.053,0.965,5.073,3.557,13.51
			c2.813,9.212,5.212,21.16,11.114,28.96c0.991,1.489,1.984,3.031,3.033,4.574c17.747,26.854,37.016,53.266,58.535,77.575H24.619
			l10.03,20.274l-10.03,20.354h64.317c-2.757,2.218-5.541,4.406-8.366,6.548c-0.91,0.69-1.875,1.296-2.785,1.993
			c-3.005-2.124-6.094-3.861-8.99-4.991c-2.508-1.001-4.797-1.633-6.479-1.964c-1.682-0.359-2.785-0.408-2.785-0.408
			s0.056,1.103,0.414,2.778c0.331,1.711,0.966,3.979,1.93,6.48c0.855,2.159,2.068,4.44,3.476,6.702
			c0.165,0.304,0.414,0.579,0.606,0.854c1.736,2.703,3.778,5.377,6.177,7.776c1.545,1.551,3.254,2.952,4.991,4.274
			c1.214,0.939,2.481,1.718,3.75,2.51c2.206,1.407,4.412,2.647,6.536,3.476c2.536,0.972,4.797,1.606,6.508,1.937
			c1.683,0.324,2.785,0.379,2.785,0.379s-0.055-1.103-0.415-2.778c-0.33-1.688-0.964-3.979-1.929-6.479
			c-0.994-2.592-2.482-5.324-4.274-8.031c9.23-6.574,18.08-13.63,26.615-21.054h26.86c8.531,7.422,17.389,14.472,26.603,21.025
			c-1.792,2.736-3.253,5.468-4.273,8.06c-0.966,2.501-1.571,4.769-1.931,6.479c-0.331,1.676-0.387,2.778-0.387,2.778
			s1.104-0.055,2.786-0.408c1.71-0.331,3.972-0.972,6.48-1.935c2.124-0.828,4.356-2.068,6.563-3.449
			c1.27-0.792,2.511-1.598,3.751-2.51c1.737-1.322,3.42-2.723,4.99-4.301c2.399-2.398,4.44-5.046,6.179-7.749
			c0.191-0.302,0.412-0.579,0.605-0.881c1.407-2.235,2.62-4.516,3.446-6.675c0.994-2.501,1.628-4.798,1.959-6.48
			c0.357-1.675,0.413-2.778,0.413-2.778s-1.103,0.049-2.785,0.408c-1.71,0.331-3.971,0.963-6.479,1.938
			c-2.896,1.129-5.985,2.86-8.99,5.018c-0.938-0.697-1.903-1.303-2.813-2.02c-2.813-2.137-5.591-4.313-8.339-6.521h64.616
			l-10.03-20.354L235.954,138.112z M83.542,172.062h-4.713l-3.206-15.953l-3.206,15.953h-4.712l-5.486-27.039h4.752L70.1,165.07
			h0.116l3.167-20.047h4.712l3.129,20.047h0.116l3.167-20.047h4.48L83.542,172.062z M100.502,172.062l-0.966-6.296h-4.674
			l-0.927,6.296h-4.559l5.563-27.039h4.828l5.563,27.039H100.502z M121.014,172.062l-4.597-10.893c-0.657,0-1.352,0-1.544,0v10.893
			h-4.791v-27.039h8.074c4.635,0,6.837,3.399,6.837,7.726c0,4.017-1.739,6.605-4.057,7.764l5.1,11.55H121.014z M141.218,172.062
			l-4.597-10.893c-0.656,0-1.352,0-1.545,0v10.893h-4.789v-27.039h8.072c4.635,0,6.838,3.399,6.838,7.726
			c0,4.017-1.739,6.605-4.057,7.764l5.1,11.55H141.218z M155.318,172.062h-4.828v-27.039h4.828V172.062z M174.98,166.306
			c0,2.78-2.164,6.103-6.992,6.103c-5.33,0-7.223-3.322-7.223-6.103v-15.605c0-2.781,1.893-6.026,7.223-6.026
			c4.828,0,6.992,3.245,6.992,6.026V166.306z M191.359,172.062l-4.597-10.893c-0.657,0-1.352,0-1.545,0v10.893h-4.79v-27.039h8.073
			c4.635,0,6.837,3.399,6.837,7.726c0,4.017-1.738,6.605-4.057,7.764l5.1,11.55H191.359z"/>
		<path fill="#FFFFFF" d="M228.844,224.748c-12.05-8.404-17.813-12.815-28.871-21.887c-1.819,2.674-3.915,5.295-6.397,7.611
			c-1.654,1.516-3.42,2.861-5.266,4.108c-1.27,0.883-2.593,1.593-3.943,2.343c12.153,10.252,18.559,15.217,31.931,24.708
			c4.965,3.309,11.968,2.124,15.416-2.592C235.16,234.324,233.753,227.948,228.844,224.748z"/>
		<path fill="#FFFFFF" d="M66.701,210.472c-2.482-2.316-4.605-4.938-6.398-7.611c-11.058,9.101-16.849,13.483-28.899,21.887
			c-3.048,1.999-4.74,5.236-4.742,8.534v0.014c0.002,1.978,0.611,3.977,1.902,5.743c2.097,2.923,5.57,4.461,9.1,4.461
			c2.18,0,4.386-0.6,6.315-1.869c13.346-9.491,19.744-14.456,31.905-24.708c-1.324-0.723-2.647-1.46-3.944-2.343
			C70.12,213.333,68.327,211.988,66.701,210.472z"/>
	</g>
	<path fill="none" d="M124.993,152.748c0-4.326-2.202-7.726-6.837-7.726h-8.074v27.039h4.791v-10.893c0.192,0,0.887,0,1.544,0
		l4.597,10.893h5.022l-5.1-11.55C123.254,159.353,124.993,156.765,124.993,152.748z"/>
	<polygon fill="none" points="81.34,165.07 81.224,165.07 78.095,145.022 73.383,145.022 70.216,165.07 70.1,165.07 66.971,145.022 
		62.219,145.022 67.705,172.062 72.417,172.062 75.623,156.108 78.829,172.062 83.542,172.062 88.987,145.022 84.507,145.022 	"/>
	<path fill="none" d="M145.197,152.748c0-4.326-2.203-7.726-6.838-7.726h-8.072v27.039h4.789v-10.893c0.193,0,0.889,0,1.545,0
		l4.597,10.893h5.022l-5.1-11.55C143.458,159.353,145.197,156.765,145.197,152.748z"/>
	<polygon fill="none" points="94.939,145.022 89.377,172.062 93.936,172.062 94.862,165.766 99.536,165.766 100.502,172.062 
		105.33,172.062 99.768,145.022 	"/>
	<rect x="150.49" y="145.022" fill="none" width="4.828" height="27.039"/>
	<path fill="none" d="M167.988,144.675c-5.33,0-7.223,3.245-7.223,6.026v15.605c0,2.78,1.893,6.103,7.223,6.103
		c4.828,0,6.992-3.322,6.992-6.103v-15.605C174.98,147.919,172.816,144.675,167.988,144.675z"/>
	<path fill="none" d="M195.338,152.748c0-4.326-2.202-7.726-6.837-7.726h-8.073v27.039h4.79v-10.893c0.193,0,0.888,0,1.545,0
		l4.597,10.893h5.021l-5.1-11.55C193.6,159.353,195.338,156.765,195.338,152.748z"/>
	<g>
		<path fill="none" d="M53.784,173.482c0,0,0.599,71.261,77.942,73.36c0,0,70.553,0.242,75.624-74.634"/>
		
			<text transform="matrix(0.9347 0.3614 -0.3556 0.9323 97.2402 239.9634)" fill="#FFFFFF" font-family="'OstrichSans-Black'" font-size="13.3056">-</text>
		
			<text transform="matrix(0.9565 0.298 -0.2921 0.9545 102.6191 241.9985)" fill="#FFFFFF" font-family="'OstrichSans-Black'" font-size="13.3056"> </text>
		
			<text transform="matrix(0.9727 0.2384 -0.2323 0.9711 107.2275 243.4233)" fill="#FFFFFF" font-family="'OstrichSans-Black'" font-size="13.3056">E</text>
		
			<text transform="matrix(0.9855 0.1763 -0.1701 0.9843 112.752 244.7554)" fill="#FFFFFF" font-family="'OstrichSans-Black'" font-size="13.3056">S</text>
		
			<text transform="matrix(0.9943 0.1136 -0.1073 0.9935 118.6602 245.7993)" fill="#FFFFFF" font-family="'OstrichSans-Black'" font-size="13.3056">T</text>
		
			<text transform="matrix(0.9981 0.0696 -0.0633 0.9975 125.3682 246.5093)" fill="#FFFFFF" font-family="'OstrichSans-Black'" font-size="13.3056">.</text>
		
			<text transform="matrix(0.9993 0.0457 -0.0394 0.9989 128.3262 246.7046)" fill="#FFFFFF" font-family="'OstrichSans-Black'" font-size="13.3056"> </text>
		
			<text transform="matrix(0.9956 -0.0881 0.0944 0.996 133.5596 246.8228)" fill="#FFFFFF" font-family="'OstrichSans-Black'" font-size="13.3056">2</text>
		
			<text transform="matrix(0.9871 -0.1544 0.1606 0.9879 139.0576 246.3096)" fill="#FFFFFF" font-family="'OstrichSans-Black'" font-size="13.3056">0</text>
		
			<text transform="matrix(0.9769 -0.2079 0.214 0.9781 144.6426 245.3994)" fill="#FFFFFF" font-family="'OstrichSans-Black'" font-size="13.3056">1</text>
		
			<text transform="matrix(0.964 -0.2603 0.2664 0.9655 148.873 244.498)" fill="#FFFFFF" font-family="'OstrichSans-Black'" font-size="13.3056">5</text>
		
			<text transform="matrix(0.9469 -0.3158 0.3218 0.9488 154.3018 243)" fill="#FFFFFF" font-family="'OstrichSans-Black'" font-size="13.3056"> </text>
		
			<text transform="matrix(0.9256 -0.3729 0.3787 0.9278 158.8457 241.4775)" fill="#FFFFFF" font-family="'OstrichSans-Black'" font-size="13.3056">-</text>
	</g>
	<g>
		<g>
			<path fill="#FFFFFF" d="M110.57,77.458c0.556,2.918,1.11,5.837,1.665,8.755c0.575,3.138-0.351,6.08-3.5,6.838
				c-2.217,0.541-4.42,1.166-6.602,1.875c-2.142-6.593-4.284-13.186-6.427-19.778c2.678-0.87,5.378-1.637,8.098-2.3
				c2.575-0.63,5.017,0.379,5.947,2.226C110.115,75.82,110.411,76.611,110.57,77.458z M107.242,90.361
				c1.512-0.378,1.615-1.734,1.244-3.358c-0.669-2.895-1.338-5.789-2.007-8.684c-0.372-1.619-1.121-2.799-2.883-2.358
				c-0.878,0.222-1.753,0.456-2.626,0.7c1.334,4.769,2.668,9.537,4.001,14.305C105.727,90.754,106.483,90.553,107.242,90.361z"/>
			<path fill="#FFFFFF" d="M122.848,85.895c-1.274,0.101-2.549,0.228-3.819,0.379c-0.06,1.633-0.107,3.265-0.143,4.897
				c-1.177,0.15-2.35,0.323-3.521,0.518c0.287-7.076,0.901-14.172,1.845-21.265c1.53-0.182,3.062-0.332,4.596-0.45
				c2.303,6.775,4.28,13.617,5.931,20.502c-1.253,0.038-2.505,0.101-3.756,0.189C123.615,89.074,123.238,87.483,122.848,85.895z
				 M121.958,82.958c-0.626-2.441-1.282-4.877-1.968-7.307c-0.035,0.003-0.07,0.007-0.105,0.011
				c-0.208,2.519-0.385,5.037-0.529,7.555C120.222,83.118,121.09,83.032,121.958,82.958z"/>
			<path fill="#FFFFFF" d="M133.688,90.491c-1.253-0.044-2.506-0.062-3.76-0.054c-0.042-6.932-0.084-13.864-0.126-20.796
				c1.537-0.009,3.074,0.013,4.611,0.067C134.172,76.635,133.93,83.563,133.688,90.491z"/>
			<path fill="#FFFFFF" d="M145.697,88.694c-0.158,0.977-0.318,1.955-0.477,2.932c-2.869-0.467-5.756-0.797-8.648-0.989
				c0.459-6.917,0.92-13.834,1.379-20.75c1.535,0.102,3.069,0.235,4.6,0.4c-0.637,5.908-1.273,11.815-1.911,17.723
				C142.33,88.192,144.018,88.42,145.697,88.694z"/>
			<path fill="#FFFFFF" d="M154.586,93.657c-1.181-0.321-2.366-0.619-3.557-0.892c0.604-2.625,1.206-5.251,1.81-7.876
				c-0.613-4.49-1.431-8.987-2.456-13.478c1.482,0.267,2.961,0.563,4.434,0.889c0.304,3.496,0.513,6.985,0.629,10.466
				c0.021,0.005,0.043,0.011,0.065,0.017c1.703-3.023,3.491-6.012,5.364-8.963c1.47,0.412,2.934,0.855,4.391,1.329
				c-3.039,3.469-5.893,7.045-8.557,10.712C156.001,88.458,155.294,91.058,154.586,93.657z"/>
		</g>
	</g>
	<g>
		<path fill="#FFFFFF" d="M138.205,148.885h-3.129v8.189h1.545c3.129,0,3.979-0.387,3.979-4.326
			C140.6,150.584,140.098,148.885,138.205,148.885z"/>
	</g>
	<g>
		<polygon fill="#FFFFFF" points="97.18,152.168 95.674,161.864 98.764,161.864 97.296,152.168 		"/>
	</g>
	<g>
		<path fill="#FFFFFF" d="M118.002,148.885h-3.129v8.189h1.544c3.129,0,3.979-0.387,3.979-4.326
			C120.396,150.584,119.894,148.885,118.002,148.885z"/>
	</g>
	<g>
		<path fill="#FFFFFF" d="M167.988,148.46c-1.699,0-2.395,1.468-2.395,2.202v15.566c0,0.889,0.695,2.318,2.395,2.318
			c1.391,0,2.163-1.507,2.163-2.318v-15.489C170.151,149.928,169.379,148.46,167.988,148.46z"/>
	</g>
	<g>
		<path fill="#FFFFFF" d="M188.347,148.885h-3.129v8.189h1.545c3.129,0,3.979-0.387,3.979-4.326
			C190.741,150.584,190.238,148.885,188.347,148.885z"/>
	</g>
</g>
</svg>
